<?xml version="1.0" standalone="no"?>
<!DOCTYPE svg PUBLIC "-//W3C//DTD SVG 20010904//EN"
 "http://www.w3.org/TR/2001/REC-SVG-20010904/DTD/svg10.dtd">
<svg version="1.0" xmlns="http://www.w3.org/2000/svg"
 width="55.000000pt" height="39.000000pt" viewBox="0 0 55.000000 39.000000"
 preserveAspectRatio="xMidYMid meet">

<g transform="translate(0.000000,39.000000) scale(0.100000,-0.100000)"
fill="#000000" stroke="none">
<path d="M450 330 c-29 -29 -28 -108 1 -139 l21 -23 -29 -41 c-16 -23 -38 -43
-50 -45 -36 -5 -45 29 -41 147 2 85 0 106 -11 106 -20 0 -29 -22 -36 -87 -6
-57 -7 -58 -37 -58 -25 0 -29 3 -23 18 21 51 13 132 -13 132 -4 0 -8 -40 -9
-90 l-2 -90 27 -2 c15 0 35 -1 45 0 12 1 17 -5 17 -22 0 -37 21 -86 41 -97 38
-20 90 12 136 84 13 21 27 35 32 33 13 -8 13 165 0 180 -16 20 -46 17 -69 -6z
m43 -70 c-2 -48 -10 -61 -23 -40 -11 17 -13 74 -3 84 16 16 28 -4 26 -44z"/>
</g>
</svg>
